<?xml version="1.0" encoding="utf-8"?>
<!-- Generator: Adobe Illustrator 27.9.0, SVG Export Plug-In . SVG Version: 6.00 Build 0)  -->
<svg version="1.1" id="Laag_1" xmlns="http://www.w3.org/2000/svg" xmlns:xlink="http://www.w3.org/1999/xlink" x="0px" y="0px"
	 viewBox="0 0 379.43 257.23" style="enable-background:new 0 0 379.43 257.23;" xml:space="preserve">
<style type="text/css">
	.st0{fill:#D8DED0;stroke:#EEF2E9;stroke-miterlimit:10;}
</style>
<path class="st0" d="M378.92,100.18c-8.97-10.5-22.29-17.18-36.07-18.08c-6.51-0.43-13.58,0.23-18.98-3.42
	c-5.74-3.88-7.66-11.37-12-16.76c-14.35-17.83-46.63-6.22-63.28-21.91c-4.76-4.48-7.56-10.7-12.19-15.31
	c-9.7-9.67-25.07-10.36-38.68-8.88s-27.75,4.45-40.71,0.01c-10.43-3.57-19.01-11.66-29.7-14.35C110.17-2.82,93,7.75,79.51,19.15
	s-26.96,24.76-44.4,27.57c-8.64,1.39-18.32,0.26-25.29,5.55c-8,6.08-8.63,17.69-8.41,27.74L0.5,256.73h375L378.92,100.18z"/>
</svg>
