<?xml version="1.0" encoding="utf-8"?>
<!-- Generator: Adobe Illustrator 27.9.0, SVG Export Plug-In . SVG Version: 6.00 Build 0)  -->
<svg version="1.1" id="Laag_1" xmlns="http://www.w3.org/2000/svg" xmlns:xlink="http://www.w3.org/1999/xlink" x="0px" y="0px"
	 viewBox="0 0 359.41 237.1" style="enable-background:new 0 0 359.41 237.1;" xml:space="preserve">
<style type="text/css">
	.st0{fill:none;stroke:#F1C5B5;stroke-miterlimit:10;}
</style>
<g>
	<path class="st0" d="M316.58,236.59c-0.85-6.83,4.66-13.8,11.5-14.56c5.45-0.61,10.96,2.23,16.33,1.11
		c0.65-0.14,1.3-0.33,1.96-0.26c0.88,0.1,1.63,0.65,2.32,1.2c4.29,3.46,7.82,7.86,10.28,12.8"/>
	<path class="st0" d="M336.46,223.54c0.86-3.18,1.72-6.43,1.58-9.72c-0.17-4.03-1.82-7.82-2.94-11.69
		c-5.61-19.46,2.3-40.14,1.51-60.38c-0.7-17.98-8.27-35.14-9.05-53.12c-0.14-3.22-0.06-6.48,0.68-9.62c0.63-2.7,1.29-3.59,2.1-6.67
		c0.98-3.75,1.27-7.19,1.26-8.95c-0.02-7.84-6.23-9.67-9-19c-0.71-2.38-1.44-6.06-1-11"/>
	<path class="st0" d="M312.19,21.93c-0.22,2.19-0.22,4.47,0.67,6.48c2.01,4.54,8.36,6.07,12.74,3.73c4.38-2.34,6.68-7.57,6.56-12.54
		c-0.15-5.71-4.25-11.31-10.44-10.47C315.48,9.98,312.75,16.46,312.19,21.93z"/>
	<path class="st0" d="M302.54,14.88c-3.04,7.28-1.01,15.43,3.73,22.13c0.93,1.31,1.97,2.58,3.37,3.59c1.53,1.1,3.43,1.83,5.39,2.34
		c9.28,2.41,20.56-0.58,25.54-7.17c2.49-3.29,3.4-7.19,3.51-11.01c0.25-8.69-4.33-19.38-15.11-23.36
		C318.31-2.55,305.67,7.41,302.54,14.88z"/>
	<path class="st0" d="M324.63,8.99c-0.05-1.57-0.09-3.15,0.1-4.7c0.08-0.68,0.22-1.37,0.54-1.97s0.85-1.13,1.51-1.31"/>
	<path class="st0" d="M327.31,10.2c-0.12-1.58-0.21-3.26,0.54-4.66c0.47-0.87,1.23-1.55,2.02-2.15c0.46-0.35,0.95-0.69,1.52-0.81"/>
	<path class="st0" d="M329.18,11.64c-0.08-1.19,0.16-2.42,0.79-3.42c0.31-0.48,0.7-0.91,1.09-1.33c0.35-0.38,0.7-0.76,1.11-1.08
		c0.74-0.6,1.65-0.99,2.59-1.12"/>
	<path class="st0" d="M330.45,13.19c0.11-0.92,0.79-1.64,1.37-2.36c0.74-0.91,1.36-1.91,2.22-2.71c0.85-0.8,2.02-1.38,3.17-1.18"/>
	<path class="st0" d="M331.59,14.91c0.84-1.57,2.27-2.73,3.72-3.77c1.19-0.86,2.52-1.69,3.98-1.67"/>
	<path class="st0" d="M332,16.34c0.42-0.61,0.93-1.15,1.5-1.61c0.62-0.49,1.31-0.89,2-1.27c0.58-0.32,1.15-0.65,1.76-0.91
		c1.14-0.48,2.38-0.72,3.62-0.69"/>
	<path class="st0" d="M331.92,18.48c0.57-0.31,1.18-0.54,1.79-0.77c0.79-0.29,1.58-0.59,2.37-0.88c0.5-0.19,1-0.37,1.5-0.56
		c0.34-0.13,0.69-0.26,1.03-0.38c1.25-0.46,2.55-0.94,3.87-0.76"/>
	<path class="st0" d="M332.24,19.65c1.73-0.38,3.52-0.44,5.29-0.46c0.88-0.01,1.76-0.01,2.62,0.14c1.3,0.23,2.52,0.79,3.69,1.42"/>
	<path class="st0" d="M332.19,21.56c2.09-0.14,4.19-0.21,6.27,0.04c2.08,0.25,4.14,0.83,5.94,1.9"/>
	<path class="st0" d="M331.83,23.66c1.94-0.03,3.86,0.41,5.75,0.85c2.31,0.53,4.71,1.12,6.5,2.66"/>
	<path class="st0" d="M331.43,25.75c3.35-0.37,6.74,0.63,9.7,2.23c0.88,0.48,1.77,1.04,2.3,1.89"/>
	<path class="st0" d="M330.65,27.19c2.25,0.08,4.36,1.04,6.4,1.98c0.41,0.19,0.82,0.38,1.22,0.59c1.57,0.82,2.99,1.93,4.17,3.25"/>
	<path class="st0" d="M329.55,28.51c0.94,0.31,1.73,0.95,2.55,1.5c1.45,0.97,3.04,1.72,4.49,2.68s2.79,2.22,3.42,3.85"/>
	<path class="st0" d="M328.72,29.65c1.04,0.45,1.88,1.27,2.54,2.19c0.66,0.92,1.17,1.93,1.72,2.93c0.97,1.76,2.09,3.5,2.52,5.46"/>
	<path class="st0" d="M327.3,31.22c0.82,0.99,1.59,2.02,2.29,3.09c0.35,0.53,0.69,1.07,0.95,1.65c0.34,0.76,0.55,1.57,0.76,2.37
		c0.31,1.2,0.62,2.42,0.57,3.66"/>
	<path class="st0" d="M325.42,32.37c0.8,0.69,1.25,1.7,1.49,2.73s0.31,2.08,0.48,3.12c0.3,1.77,0.93,3.63,0.29,5.3"/>
	<path class="st0" d="M323.33,33.17c1.06,1.48,1.63,3.28,1.89,5.08c0.27,1.8,0.25,3.64,0.22,5.46"/>
	<path class="st0" d="M318.59,33.06c0.3,0.91,0.6,1.82,0.89,2.72c0.11,0.33,0.22,0.67,0.25,1.01c0.04,0.43-0.03,0.87-0.07,1.3
		c-0.18,1.85,0.19,3.84-0.68,5.48"/>
	<path class="st0" d="M317.18,32.77c0.1,1.67,0.21,3.38-0.26,4.99c-0.18,0.61-0.43,1.18-0.68,1.76c-0.49,1.12-0.99,2.26-1.77,3.21"
		/>
	<path class="st0" d="M315.91,32.14c-0.89,0.97-1.22,2.32-1.9,3.45c-1.14,1.89-3.17,3.04-5.17,3.99"/>
	<path class="st0" d="M313.65,30.5c-2.35,2.51-5.96,3.76-9.36,3.24"/>
	<path class="st0" d="M312.78,28.9c-1.74,0.49-3.49,0.99-5.29,1.2c-1.8,0.22-3.66,0.15-5.36-0.47"/>
	<path class="st0" d="M312.05,25.91c-1.35,0.28-2.74,0.3-4.12,0.32c-1.56,0.02-3.16,0.03-4.61-0.55c-0.77-0.31-1.47-0.79-2.05-1.39"
		/>
	<path class="st0" d="M312.21,23.5c-2.44,0.28-4.95-0.08-7.21-1.04c-1.49-0.63-2.94-1.61-3.56-3.11"/>
	<path class="st0" d="M312.37,20.67c-1.02,0.12-2.06,0.05-3.06-0.2c-0.65-0.17-1.29-0.41-1.94-0.58c-0.17-0.04-0.35-0.09-0.51-0.17
		c-0.16-0.08-0.3-0.2-0.44-0.32c-0.59-0.52-1.19-1.04-1.78-1.57c-0.82-0.72-1.66-1.46-2.25-2.38"/>
	<path class="st0" d="M313.31,17.57c-1.48,0.1-2.93-0.56-4.07-1.5s-2.03-2.15-2.9-3.35c-0.48-0.67-0.98-1.37-1.11-2.18"/>
	<path class="st0" d="M314.38,14.69c-0.58,0.03-1.15-0.21-1.62-0.56c-0.47-0.35-0.84-0.8-1.22-1.25c-0.71-0.86-1.43-1.72-1.97-2.7
		s-0.9-2.08-0.83-3.2"/>
	<path class="st0" d="M315.89,12.51c-0.37,0.03-0.69-0.23-0.95-0.48c-2.01-1.92-3.4-4.69-3.01-7.44"/>
	<path class="st0" d="M317.87,10.43c-0.34-0.01-0.57-0.35-0.73-0.65c-0.98-1.84-1.97-3.72-2.39-5.76c-0.09-0.44-0.15-0.91,0.04-1.32
		"/>
	<path class="st0" d="M319.84,9.3c-0.92-1.71-1.18-3.69-1.42-5.62c-0.07-0.58-0.14-1.16-0.22-1.74c-0.02-0.18-0.03-0.4,0.12-0.5"/>
	<path class="st0" d="M322.34,8.84c-0.49-2.22-0.49-4.52-0.48-6.8c0-0.3,0-0.61,0.1-0.89s0.32-0.54,0.61-0.61"/>
	<path class="st0" d="M324.26,13.52c-1.27-0.17-2.61-0.31-3.77,0.23c-1.16,0.54-1.98,2.01-1.37,3.14c0.2,0.37,0.53,0.66,0.88,0.91
		c1.1,0.77,2.4,1.15,3.59,1.76s2.33,1.56,2.6,2.87c0.25,1.26-0.41,2.58-1.42,3.38s-2.31,1.13-3.59,1.25c-1,0.09-2.05,0.04-2.97-0.36
		c-0.92-0.41-1.71-1.23-1.86-2.22"/>
	<path class="st0" d="M322.19,11.27c0,5.96,0,11.93,0,17.89"/>
	<path class="st0" d="M336.75,139.65c-1.27-3.01-2.48-6.67-0.6-9.34c1.12-1.58,3.04-2.33,4.67-3.37c1.73-1.1,3.21-2.6,4.29-4.34
		c-0.78,3.41-1.56,7.03-0.45,10.34c0.45,1.33,1.19,2.55,1.69,3.85c1.64,4.22,0.72,9.13-1.61,13c-2.34,3.87-5.94,6.82-9.79,9.21"/>
	<path class="st0" d="M336.98,145.66c2.4-1.3,4.02-3.93,4.09-6.65"/>
	<path class="st0" d="M330.28,108.42c-4.03,0.45-8.57,0.7-11.62-1.96c-2.03-1.77-2.94-4.46-3.99-6.94
		c-1.05-2.48-2.55-5.06-5.08-5.99c3.22,0.66,6.33-1.33,9.05-3.17c2.73-1.84,5.97-3.7,9.12-2.77"/>
	<path class="st0" d="M327.43,98.8c-2.66,0.11-5.35-0.52-7.69-1.8"/>
</g>
<g>
	<path class="st0" d="M19.29,70.72c-1.11,1.79-8.81,3.58-9.92,5.37c-0.09-3.76,0.59-7.74,3.03-10.61c2.43-2.87,6.97-4.16,10.1-2.08
		c3.93,2.62,3.54,8.82,0.81,12.68c-2.73,3.86-7.03,6.25-10.55,9.4"/>
	<path class="st0" d="M16.46,100.4c-3.87,0.5-8.15,0.91-11.35-1.33c-2.01-1.41-3.29-3.79-3.36-6.24c3.54,0.9,10.41-0.19,13.06,2.73
		C15.25,96.05,15.35,100.55,16.46,100.4z"/>
	<path class="st0" d="M15.31,140.16c-0.26,4.19,0.04,8.82,2.92,11.87c2.75,2.91,7.08,3.57,11.07,3.91
		c7.51,0.63,15.95,0.38,21.35-4.88c5.94-5.8,5.6-16.22,0.44-22.72C37.48,111.17,16.57,119.98,15.31,140.16z"/>
	<g>
		<path class="st0" d="M47.68,117.33c2.69,0.95,8.22,3.01,12.38,8.56c0.89,1.19,7.1,9.75,4,19c-2.09,6.23-7.38,9.71-10.04,11.46
			c-0.68,0.45-2.4,1.69-6.4,3.16c-6.48,2.37-13.14,4.78-20.04,4.78c-6.9,0-14.23-2.9-17.65-8.9c-2.31-4.05-2.57-8.96-2.17-13.6
			c0.52-6.14,2.15-12.34,5.81-17.31C21.39,113.89,37.5,113.72,47.68,117.33z"/>
		<path class="st0" d="M42.39,121.51c1.83-1.67,3.92-3.06,6.17-4.12"/>
		<path class="st0" d="M49.76,126.37c2-1.68,4.22-3.08,6.59-4.17"/>
		<path class="st0" d="M53.39,132.63c3.23-0.22,5.93-2.65,9.17-2.81"/>
		<path class="st0" d="M54.56,135.88c3.31-0.95,6.79-1.43,10.26-1.4"/>
		<path class="st0" d="M52,130.2c2.3-1.93,4.84-3.55,7.56-4.81"/>
		<path class="st0" d="M46.73,124.03c1.59-1.93,3.59-3.53,5.83-4.64"/>
		<path class="st0" d="M54.56,138.28c3.43-0.22,6.88-0.13,10.28,0.27"/>
		<path class="st0" d="M54.77,141.88c3.23-0.16,6.49,0.26,9.57,1.23"/>
		<path class="st0" d="M54.56,144.75c1.5-0.72,3.23-0.26,4.7,0.54s2.8,1.95,4.3,2.7"/>
		<path class="st0" d="M53.19,148.04c1.95,1.2,3.77,2.6,5.43,4.17"/>
		<path class="st0" d="M50.87,151.5c1.26,1.55,2.63,3,4.11,4.35"/>
		<path class="st0" d="M47.41,153.55c0.2,1.87,1.05,3.66,2.37,4.99"/>
		<path class="st0" d="M43.59,155.37c-0.18,1.81,0.23,3.68,1.17,5.24"/>
		<path class="st0" d="M39.94,155.28c-0.23,2.28,0.25,4.62,1.37,6.62"/>
		<path class="st0" d="M36.32,156.51c-0.25,2.14-0.15,4.31,0.3,6.41"/>
		<path class="st0" d="M32.94,156.21c-0.47,2.37-0.22,4.88,0.71,7.11"/>
		<path class="st0" d="M28.55,156.03c-0.25,1.51-0.51,3.06-0.29,4.58c0.22,1.52,0.98,3.04,2.32,3.78"/>
		<path class="st0" d="M23.95,155.31c-0.41,1.05-1.29,3.77-0.17,6.76c0.35,0.95,0.83,1.73,1.29,2.32"/>
		<path class="st0" d="M20.73,154.45c-1.1,3.01-1.07,6.43,0.1,9.42"/>
		<path class="st0" d="M16.56,150.39c-2.64,2.17-4.02,5.68-3.54,9"/>
		<path class="st0" d="M19.15,153.06c-1.08,0.14-1.51,1.45-1.68,2.52c-0.36,2.27-0.58,4.57-0.67,6.86"/>
		<path class="st0" d="M16.04,147.3c-0.91,0.51-2.58,1.59-3.98,3.59c-1.4,2.01-1.84,3.97-2,5"/>
		<path class="st0" d="M15.56,145.58c-1.9-0.23-3.88,0.11-5.56,0.94c-1.11,0.55-2.19,1.52-2.03,2.65"/>
		<path class="st0" d="M15.05,142.68c-1.48-0.21-3.02-0.35-4.45,0.09s-2.73,1.6-2.91,3.08"/>
		<path class="st0" d="M14.81,139.88c-1.31-0.08-2.65-0.15-3.93,0.13c-1.28,0.29-2.54,0.98-3.19,2.13"/>
		<path class="st0" d="M15.49,137.11c-1.64-0.01-3.28-0.02-4.92-0.04c-0.26,0-0.8-0.08-1.35,0.21c-0.71,0.38-1.02,1.14-1.17,1.61"/>
		<path class="st0" d="M8.84,134.4c2.35-0.38,4.74-0.46,7.11-0.22C13.58,134.18,11.2,134.4,8.84,134.4z"/>
		<path class="st0" d="M17.55,130.24c-2.44,0-4.87,0-7.31,0"/>
		<path class="st0" d="M19.58,126.71c-2.57-0.41-5.2-0.44-7.77-0.09"/>
		<path class="st0" d="M23.7,122.72c-2.14-1.34-4.69-1.91-7.14-1.59"/>
		<path class="st0" d="M27.13,120.88c-0.42-1.86-1.98-3.4-3.84-3.81"/>
		<path class="st0" d="M31.33,119.46c-0.49-1.48,0.08-3.37,1.23-4.07"/>
		<path class="st0" d="M35.81,119.05c-0.05-1.89,1.75-3.65,3.75-3.66"/>
		<path class="st0" d="M40.29,119.95c0.42-1.92,2.26-3.45,4.27-3.56"/>
		<path class="st0" d="M21.01,124.86c-1.24-0.01-2.4-0.57-3.57-0.96s-2.53-0.62-3.61-0.01"/>
		<path class="st0" d="M25.2,121.47c-1.1-1.74-2.87-2.78-4.64-2.72"/>
		<path class="st0" d="M34.75,131.43c-1.45-0.15-2.99-0.29-4.32,0.31c-1.33,0.6-2.31,2.23-1.69,3.55c0.47,0.98,1.59,1.43,2.62,1.79
			c1.61,0.57,3.21,1.13,4.82,1.7c0.77,0.27,1.59,0.57,2.1,1.22c0.49,0.63,0.59,1.47,0.68,2.26c0.19,1.76,0.29,3.8-0.99,5.03
			c-0.68,0.65-1.65,0.94-2.59,1.04c-2.81,0.31-5.74-0.85-7.58-3"/>
		<path class="st0" d="M31.76,128.2c0.18,8.33,0.95,16.65,2.28,24.88"/>
		<path class="st0" d="M0.99,47.49c-1.31,7.2,0.06,14.85,3.78,21.16c2.6,4.41,6.37,8.32,7.5,13.31c1.11,4.95-0.5,10.52,1.99,14.95
			c0.99,1.77,2.54,3.14,3.91,4.64c4.83,5.3,7.37,12.24,9.8,18.98"/>
	</g>
</g>
</svg>
